<svg xmlns="http://www.w3.org/2000/svg" viewBox="0 0 1053.06 334.53"><defs><style>.cls-1{fill:#1786cc;}.cls-2{fill:#02a2e8;}.cls-3{fill:#01a2e8;}.cls-4{fill:#2573ba;}.cls-5{fill:#2674ba;}.cls-6{fill:#2875bb;}.cls-7{fill:#2774ba;}.cls-8{fill:#2976bb;}.cls-9{fill:#2b77bb;}</style></defs><title>Asset 1</title><g id="Layer_2" data-name="Layer 2"><g id="Layer_1-2" data-name="Layer 1"><path class="cls-1" d="M190.35,225.08c8.33-9.54,16.92-18.9,26.43-27.21,15.69-13.69,38.69-12.54,54,2.21q24.12,23.22,47.93,46.75c2.59,2.56,3.92,2.77,6.59,0Q402.8,167.45,480.45,88.21c5.88-6,11.74-11.74,20.57-13.21,12.64-2.11,24.69,3.44,30.83,14.51a28.66,28.66,0,0,1-4.26,34.19c-6.63,7-13.47,13.86-20.22,20.77q-77.43,79.1-154.88,158.18c-14.73,15-35.07,17.78-51.79,7A50.51,50.51,0,0,1,293,303.3c-15.7-15.15-31.32-30.39-47-45.54-1.22-1.17-2.07-3.25-4.42-2.62-2.34-5.56-7.58-8.54-11.4-12.79C219.58,230.52,206.54,224.12,190.35,225.08Z"/><path class="cls-2" d="M319.71,0c51.87-.1,93.78,41.32,93.91,92.83.14,52.59-42.44,95.13-95.31,95.21-51.72.09-93.73-41.51-93.87-92.95C224.29,42.38,266.65.11,319.71,0Zm-.25,39.85a54.14,54.14,0,0,0-54.74,53.38c-.4,29.68,23.77,54.58,53.31,54.92a54.16,54.16,0,1,0,1.43-108.3Z"/><path class="cls-2" d="M213,146.69c-.7,38.34-31.45,68.08-69.68,67.39-37.14-.67-66.6-31.66-66-69.41.61-37.41,31.77-67.15,69.55-66.4C183.56,79,213.69,110.18,213,146.69Zm-68,30.57a31.09,31.09,0,1,0-31.14-31.08A31.2,31.2,0,0,0,145,177.26Z"/><path class="cls-3" d="M199.84,298.27a288.34,288.34,0,0,1-25.71,26.48c-15.64,13.89-39,12.8-54.4-2.05-16-15.38-31.75-30.9-47.65-46.32-1.28-1.24-2.22-3-4.28-3.23-2.67-5.32-7.68-8.53-11.6-12.72C45.43,249,32.59,242,16.33,243c8.43-8.75,16.44-18,25.37-26.16,15.43-14.15,39.11-13.42,54.41,1.24,16.12,15.44,32.05,31.09,48.08,46.62,1.3,1.25,2.38,2.83,4.25,3.38.22,2.46,2.16,3.8,3.82,5a62.33,62.33,0,0,1,9.13,8.49C171.75,292.94,184.35,298.9,199.84,298.27Z"/><path class="cls-4" d="M199.84,298.27c-15.49.63-28.09-5.33-38.45-16.65a62.33,62.33,0,0,0-9.13-8.49c-1.66-1.21-3.6-2.55-3.82-5,13.6-14.71,27.48-29.14,41.91-43,16.19-1,29.23,5.44,39.83,17.27,3.82,4.25,9.06,7.23,11.4,12.79-6.45,8-14,15-21.1,22.35C213.71,284.52,206.73,291.35,199.84,298.27Z"/><path class="cls-5" d="M16.33,243c16.26-1,29.1,5.91,39.87,17.39,3.92,4.19,8.93,7.4,11.6,12.72-6.42,6.72-12.47,13.85-19.35,20.06a29.18,29.18,0,0,1-40.61-41.8C10.52,248.48,13.49,245.82,16.33,243Z"/><path class="cls-6" d="M621.75,124.5A39.74,39.74,0,0,1,607.06,122a22.76,22.76,0,0,1-11.25-8.76c-2.38-3.72-5.23-8.77-2.81-12s8.06-.78,12.29-1c2-.12,1.73,1.71,2,2.91,1.09,5.22,4.57,8,9.51,9,5.88,1.29,11.72,1.41,16.52-2.91,3.32-3,2.78-7.59-.87-10.35-2.72-2.05-6-2.9-9.18-3.75-5.63-1.48-11.35-2.64-16.73-5-6.92-3-11.56-7.78-11.92-15.75-.37-8.19,3.33-14.33,10.4-17.93,11-5.59,22.2-5.21,33,.55,5.31,2.81,8.3,7.57,9.36,13.47.21,1.12.47,3-.08,3.35-3.39,2.31-7.33.55-11,1-1.82.24-2.93-.31-3.68-2.36-2.69-7.39-13.16-10.66-19.84-6.4a6.92,6.92,0,0,0-3.44,6.71c.18,3,2.11,4.51,4.6,5.25,7.18,2.11,14.47,3.84,21.6,6.09,9,2.85,14.2,9.42,14.51,17.67.35,9.08-4.67,16.53-13.63,20.06a29.45,29.45,0,0,1-10.19,2.28C624.75,124.3,623.25,124.42,621.75,124.5Z"/><path class="cls-7" d="M596.57,181.87c0-10,.13-20-.07-29.94-.06-3.34.68-4.72,4.34-4.55,10.62.48,21.3-.72,31.9.65,11.73,1.52,18.91,10.22,18.61,22.05s-7.84,20.18-19.62,21.14c-5.46.45-11,.42-16.46.34-2.84-.05-3.77.94-3.68,3.75.17,5.82-.06,11.65.1,17.47.06,2.54-.64,3.37-3.32,3.46-11.8.4-11.8.5-11.8-11.41Zm15.06-12.56c0,2.66.06,5.32,0,8-.06,1.9.71,2.74,2.63,2.66,4.81-.19,9.65.43,14.43-.61,5.36-1.18,7.79-4,7.93-9.27.15-5.79-2-8.75-7.42-10.2a28.22,28.22,0,0,0-7.43-.66C611.62,159.18,611.62,159.18,611.63,169.31Z"/><path class="cls-6" d="M694.68,275.31c.17,8-.61,15.51-4,22.61-4.19,8.83-11.41,12.7-20.88,12.64-9.29-.06-16.67-3.85-20.25-12.7a57.16,57.16,0,0,1-.1-44.21c3.66-9.06,11.15-12.9,20.63-12.89s16.61,4,20.73,12.88C694.08,260.62,694.88,268,694.68,275.31Zm-35.54,1.56c.12,2.28.25,5.94.53,9.57a21.06,21.06,0,0,0,.86,3.88c1.7,6.11,4.49,8.84,9.13,9,5.07.15,8.33-2.34,9.86-8.65a61.88,61.88,0,0,0-.11-30.53c-1.19-4.6-3.95-8-9.4-8.06s-7.86,3.68-9.33,8.15C659,265.17,659.23,270.36,659.14,276.87Z"/><path class="cls-6" d="M752.39,275.09a48.32,48.32,0,0,1,3.3-20.37c3.79-9.1,10.71-13.76,20.51-13.95s17.71,3.7,21.49,13.15a56.86,56.86,0,0,1-.13,43.75c-3.65,9-11.15,12.88-20.66,12.88s-16.63-4-20.7-12.88C752.93,290.53,752.2,283,752.39,275.09Zm35.49.91c0-5.14,0-10.29-1.39-15.31-1.58-5.61-4.86-8.55-9.52-8.61-5.51-.08-8.14,3.47-9.35,8a61,61,0,0,0,0,31c1.15,4.48,3.54,8.3,9.2,8.18,4.82-.1,7.77-2.65,9.57-8.51C787.92,286,787.73,281,787.88,276Z"/><path class="cls-6" d="M922.72,210.11c-7,7.92-15.05,8.81-23.37,5.88-9-3.16-12.58-10.78-14-19.67-1.41-9.15,0-17.67,6.36-24.72,7.59-8.45,19.46-8.61,30,.05,0-6.71.27-12.73-.09-18.7-.26-4.27.79-5.84,5.4-5.63,8.48.39,8.5.09,8.5,8.37,0,18.64-.12,37.29.09,55.93,0,3.8-1,5.17-4.71,4.57a10.33,10.33,0,0,0-3,0C924,216.77,921.4,215.89,922.72,210.11Zm-24.18-18.45a19.54,19.54,0,0,0,1.75,8.3c2.26,5.13,6.14,7.57,11.37,7.19,4.79-.34,8.33-3.44,9.73-8.65a26.42,26.42,0,0,0-.1-14.8c-1.44-4.7-4.57-7.79-9.62-8.23-4.46-.39-8.22,1.2-10.59,5.19C899.25,183.74,898.61,187.17,898.54,191.66Z"/><path class="cls-7" d="M807,210.8c-13.28,12.18-33.31,6.74-36.89-12.15a37.27,37.27,0,0,1,.79-18.26c4-12.87,19.68-21.61,35.23-9,0-7,.14-13.36-.06-19.72-.1-3.22.85-4.29,4.21-4.28,9.45,0,9.45-.13,9.45,9.43,0,18.15-.1,36.3.09,54.46,0,3.77-.77,5.65-4.85,4.94a14.93,14.93,0,0,0-3,0C808.71,216.28,805.11,216.85,807,210.8Zm-.43-19.66a18.7,18.7,0,0,0-2-9.93,10.21,10.21,0,0,0-9.2-5.8c-4.24-.11-7.94,1.38-10,5.33-3.63,7.13-3.62,14.4.36,21.37,2.26,3.94,6.05,5.49,10.59,5a10,10,0,0,0,8.59-6.59A21.16,21.16,0,0,0,806.55,191.14Z"/><path class="cls-8" d="M716.86,297.5c9.62,0,18.23.34,26.8-.13,5.54-.3,4.64,2.95,4.72,6.26s.36,5.91-4.66,5.77c-13.64-.38-27.3-.22-41-.07-3.35,0-4.3-.83-3.78-4.26,1.27-8.27,5.61-14.5,12.11-19.35,5.33-4,10.91-7.61,16.28-11.53,4.07-3,6.94-6.74,6.69-12.13-.23-5-2.89-8.25-7.54-9.22-4.84-1-8.51.66-10.86,5-.63,1.15-.77,2.57-1.41,3.7-1.14,2,.59,5.56-1.94,6.19-3.29.82-6.94.31-10.43.19-1.67-.05-1.35-1.56-1.43-2.67-.68-9.56,6.1-19.88,15.15-23.07,10.63-3.75,23.19-.27,28.77,8s4.38,19.87-3.08,27.47c-3.77,3.84-8.48,6.4-12.84,9.44C724.52,289.8,720.42,292.35,716.86,297.5Z"/><path class="cls-8" d="M610.06,297.5c9.47,0,18.06.15,26.65-.08,3.56-.09,5,.65,4.85,4.61-.43,8.61,1,7.16-7.07,7.22-12.83.09-25.66-.08-38.48.09-3.33,0-4.28-.76-3.8-4.24,1.1-8,5.15-14,11.28-18.73,5.4-4.16,11.17-7.84,16.67-11.87,4.65-3.41,8-7.61,7-13.9-.8-4.67-3.7-7.34-8.37-8-4.45-.58-7.79,1.21-9.93,5.14-.55,1-.81,2.18-1.28,3.24-1,2.21.27,5.9-2.1,6.66-3,1-6.58.27-9.91.33-2,0-2-1.31-2-2.71.46-9,3.39-16.83,11.62-21.34,9.21-5.05,18.69-4.61,27.41,1.28,7.41,5,9.42,12.57,8,21.13-1,6.3-4.9,10.84-9.86,14.48-4,3-8.27,5.59-12.35,8.48A28.4,28.4,0,0,0,610.06,297.5Z"/><path class="cls-9" d="M1017.6,183.21c4.6-4.38,9-8,12.66-12.23,3.14-3.62,6.53-5.23,11.25-4.66,2.63.31,5.32.05,9.54.05L1039.18,178c-6.91,6.76-6.91,6.76-1.54,14.87,4.95,7.46,9.89,14.94,15.42,23.28-5.49,0-10.19,0-14.89,0-1.92,0-2.52-1.38-3.29-2.62-3.07-4.95-6-10-9.19-14.86-.9-1.38-1.33-4.35-3.26-3.6-2.27.87-4.75,2.65-4.81,5.78-.07,4-.18,8,0,12,.14,2.7-.87,3.29-3.42,3.36-10.39.28-10.39.37-10.39-9.92,0-18.16.09-36.31-.08-54.46,0-3.5,1-4.54,4.49-4.51,9.35.09,9.35-.07,9.35,9.49Z"/><path class="cls-6" d="M686.91,101.51c-4.83,0-9.66.1-14.48,0-3.1-.09-3.61,1.24-3.08,4,1.58,8.17,13.13,12,19.35,5.67,3.83-3.91,7.74-3.48,12.08-3.62,2.38-.08,3,.67,2,2.91-2.09,4.69-4.93,8.59-9.64,11-18.55,9.58-38.83-3.25-38-24.06.62-14.74,10.46-25,24.25-25.31,15.14-.32,26.06,11.21,25.29,26.48-.12,2.53-1.06,3-3.29,3C696.57,101.43,691.74,101.5,686.91,101.51Zm-7.4-8.57c2.65,0,5.31-.13,8,0,3.39.19,3.47-1.3,2.48-3.93-1.66-4.38-4.68-6.69-9.35-6.8s-8.44,1.59-10.63,5.92c-1.65,3.23-1.47,5.36,3.09,4.82A55.65,55.65,0,0,1,679.51,92.94Z"/><path class="cls-6" d="M688.33,194.73c-4.66,0-9.33.19-14,0-3.74-.19-4.14,1.25-3.2,4.43,2.48,8.44,13.93,11.43,20.07,4.57,3.88-4.33,8.15-2.59,12.34-2.71,2.28-.07,1.13,2,.7,3-1.8,4.21-4.32,8-8.52,10.1-9.42,4.73-19,5-28.06-.67S656,198.61,657,188.62c1.54-15.64,14-25.37,29-23.31,12.14,1.67,21.71,14.3,20.52,26.8-.23,2.37-1.36,2.65-3.22,2.63C698.32,194.71,693.32,194.73,688.33,194.73Zm4.11-8.66c-1.68-7.82-4.58-10.62-10.47-10.72a10.89,10.89,0,0,0-11,7.76c-.6,2.14-.25,3,2.17,3C679.49,186,685.81,186.07,692.44,186.07Z"/><path class="cls-9" d="M979.1,210.43c-5.58,6.36-12.39,7.59-19.87,6.68-6.56-.8-11.36-4.75-12.52-11.14-2.25-12.38-.63-24.93-1-37.4a1.85,1.85,0,0,1,2.07-2.17c3.17,0,6.34,0,9.5,0s2.19,2.39,2.21,4c.09,9-.14,18,.18,27,.27,7.78,5.4,11.15,12.64,8.66,4.91-1.68,6.07-6,6.2-10.42.24-8,.33-16,.06-24-.14-4,.72-5.55,5.09-5.4,8.82.32,8.83.06,8.83,9.07,0,12.17-.13,24.33.08,36.49.06,3.52-.95,4.91-4.44,4.38a10.4,10.4,0,0,0-3,0C980.94,216.79,978.34,215.73,979.1,210.43Z"/><path class="cls-8" d="M726.15,79.25C731,73.57,736.94,71.54,744,72.1c8.21.65,13.37,4.91,14.59,13.07,1.76,11.76.43,23.62.81,35.43.06,2.06-1,2.54-2.81,2.49a64.53,64.53,0,0,0-7.49,0c-3,.27-3.61-1-3.57-3.76.13-8.83.2-17.66,0-26.49-.21-8.15-4.55-11.54-12-9.67-5.33,1.34-6.79,5.62-6.93,10.33q-.37,12.49-.1,25c.07,3.28-.55,4.7-4.29,4.65-9.59-.12-9.59.07-9.59-9.74,0-11.83.14-23.66-.09-35.49-.06-3.61.73-5.4,4.62-4.73a14.89,14.89,0,0,0,2.5,0C725.3,73.24,725.3,73.24,726.15,79.25Z"/><path class="cls-6" d="M863.32,210.49c-5,5.71-11.16,7.29-18.16,6.76-8.41-.63-13.62-5.23-14.57-13.6-1.3-11.44-.33-22.94-.62-34.41-.05-2.16.84-3.07,3-2.86a8.34,8.34,0,0,0,1,0c9.73-.27,9.7-.27,9.74,9.51,0,7.32-.27,14.67.34,22,.63,7.62,4.86,10.25,12,8.38,4.88-1.27,6.45-5.07,6.6-9.44.29-8.48.43-17,.22-25.45-.1-3.87.89-5.17,4.95-5.05,8.84.26,8.85,0,8.85,9,0,12-.21,24,.11,35.94.12,4.34-1.3,5.65-5.3,5a7.71,7.71,0,0,0-2.49,0C864.66,216.94,862.65,215.4,863.32,210.49Z"/><path class="cls-5" d="M727.56,172.24c5.87-6.26,12.54-8,20-6.79s12,5.73,12.83,13.24c1.33,11.61.39,23.28.64,34.93,0,2-.84,2.42-2.68,2.59-11,1-11,1.1-11-9.74,0-6.83.24-13.67-.16-20.47-.46-8-3.59-10.64-10.52-9.89-4.84.52-7.91,3.46-8.19,9.06-.44,8.81-.53,17.64-.33,26.45.1,3.87-1.14,4.72-4.79,4.63-9-.2-9,0-9-8.76,0-12.16.15-24.31-.09-36.46-.08-3.75,1-5.26,4.71-4.66a10.7,10.7,0,0,0,3,0C726.18,165.84,728.79,166.82,727.56,172.24Z"/><path class="cls-8" d="M897.65,72c7.82.07,14.34,1,19.18,6.51A14.71,14.71,0,0,1,919,81.86c2.52,5.3,2,6.12-4,6.08-3.61,0-7.28,1-9.3-4-1.33-3.35-10.25-3.76-13.34-1.44-2.77,2.09-2.37,5.31,1.08,7.19s7.32,2.12,11,3.12c2.57.7,5.17,1.27,7.68,2.14,4.79,1.68,8.66,4.43,9.39,9.92.81,6-.8,11.23-5.82,15-8.12,6.17-26.12,5.87-34-.55a16.26,16.26,0,0,1-2.14-2.09,13.33,13.33,0,0,1-3.52-9.56c0-.68,10.45-1.07,11.7-.59,1,.37,1,1.23,1.36,1.93,3.07,5.69,8.7,7.68,14.71,5.32,2.38-.93,4-2.4,4.16-5,.16-2.81-1.67-4.29-4-5-4.62-1.36-9.31-2.5-14-3.78-9.65-2.66-13.56-6.78-13.11-13.74.5-7.78,5.55-12.74,14.79-14.3A56.88,56.88,0,0,1,897.65,72Z"/><path class="cls-7" d="M854.87,116.35c-5.32,6.34-11.18,8.28-18,7.83-8.93-.59-14.63-5.3-15.11-14.17-.61-11.29-.28-22.64-.43-34,0-2.2.92-2.71,3-2.85,10.51-.75,10.42-.81,10.53,9.81.08,7.48-.61,15,.46,22.44.87,6,3,7.89,8.24,8,5.9.1,9.18-2.41,10.06-8.15,1.4-9.1.67-18.29.6-27.43,0-3.82,1.09-4.78,4.79-4.69,8.78.2,8.78,0,8.78,8.55,0,12.32-.12,24.64.08,37,.06,3.46-.89,5-4.43,4.42a9,9,0,0,0-2.49,0C856.72,123.68,853.61,123,854.87,116.35Z"/><path class="cls-8" d="M789.91,72.08a29.08,29.08,0,0,1,11.75,1.81,15.56,15.56,0,0,1,8.71,7.81c2.5,5.11,1.76,6.27-4,6.24-3.63,0-7.26,1-9.26-4.11-1.29-3.3-10.42-3.66-13.35-1.33-2.47,2-2.11,5.13.86,7,2.45,1.53,5.31,1.87,8,2.58,3.54.92,7.13,1.65,10.61,2.75,5.47,1.74,9.46,5.11,9.94,11.2a15,15,0,0,1-7,14.52c-7.85,5.2-24.38,5-32-.43a15.3,15.3,0,0,1-6.65-10.16c-.36-2.08.21-3.14,2.53-3,2.5.13,5,.08,7.5,0,1.75-.05,2.4.68,3.13,2.35,2.56,5.84,10.81,7.87,16.16,4.25,3.71-2.51,3.69-6.87-.41-8.65-3.78-1.64-7.91-2.45-11.9-3.61-2.55-.74-5.19-1.24-7.65-2.21-4.58-1.8-8.06-4.66-8.44-10.08-.42-6,1.58-10.82,6.95-13.87C779.91,72.57,784.84,71.93,789.91,72.08Z"/></g></g></svg>